<svg width="153" height="19" viewBox="0 0 153 19" fill="none" xmlns="http://www.w3.org/2000/svg">
<path d="M23.04 1.896C23.152 1.576 23.328 1.336 23.568 1.176C23.824 1.016 24.104 0.935999 24.408 0.935999C24.792 0.935999 25.12 1.056 25.392 1.296C25.68 1.536 25.824 1.856 25.824 2.256C25.824 2.4 25.784 2.608 25.704 2.88L20.544 17.16C20.416 17.48 20.2 17.728 19.896 17.904C19.608 18.08 19.288 18.168 18.936 18.168C18.584 18.168 18.256 18.08 17.952 17.904C17.648 17.728 17.44 17.48 17.328 17.16L13.344 5.856L9.288 17.16C9.16 17.48 8.944 17.728 8.64 17.904C8.352 18.08 8.032 18.168 7.68 18.168C7.328 18.168 7 18.08 6.696 17.904C6.408 17.728 6.208 17.48 6.096 17.16L0.936 2.88C0.856 2.64 0.816 2.432 0.816 2.256C0.816 1.856 0.96 1.536 1.248 1.296C1.552 1.056 1.904 0.935999 2.304 0.935999C2.624 0.935999 2.912 1.016 3.168 1.176C3.424 1.336 3.608 1.576 3.72 1.896L7.8 13.632L12 1.968C12.112 1.648 12.296 1.4 12.552 1.224C12.808 1.032 13.088 0.935999 13.392 0.935999C13.696 0.935999 13.976 1.032 14.232 1.224C14.504 1.4 14.696 1.656 14.808 1.992L18.888 13.776L23.04 1.896ZM41.5866 18.216C39.9386 18.216 38.5066 17.864 37.2906 17.16C36.0906 16.456 35.1626 15.448 34.5066 14.136C33.8506 12.824 33.5226 11.288 33.5226 9.528C33.5226 7.768 33.8426 6.24 34.4826 4.944C35.1386 3.632 36.0746 2.624 37.2906 1.92C38.5066 1.216 39.9386 0.863999 41.5866 0.863999C43.2346 0.863999 44.6586 1.216 45.8586 1.92C47.0746 2.624 48.0026 3.632 48.6426 4.944C49.2986 6.24 49.6266 7.768 49.6266 9.528C49.6266 11.288 49.2986 12.824 48.6426 14.136C47.9866 15.448 47.0506 16.456 45.8346 17.16C44.6346 17.864 43.2186 18.216 41.5866 18.216ZM41.5866 15.744C43.1386 15.744 44.3466 15.208 45.2106 14.136C46.0906 13.064 46.5306 11.528 46.5306 9.528C46.5306 7.528 46.0906 6 45.2106 4.944C44.3466 3.872 43.1386 3.336 41.5866 3.336C40.0186 3.336 38.7946 3.872 37.9146 4.944C37.0506 6 36.6186 7.528 36.6186 9.528C36.6186 11.528 37.0506 13.064 37.9146 14.136C38.7946 15.208 40.0186 15.744 41.5866 15.744ZM66.2897 18.216C64.6417 18.216 63.2097 17.864 61.9937 17.16C60.7937 16.456 59.8657 15.448 59.2097 14.136C58.5537 12.824 58.2257 11.288 58.2257 9.528C58.2257 7.768 58.5457 6.24 59.1857 4.944C59.8417 3.632 60.7777 2.624 61.9937 1.92C63.2097 1.216 64.6417 0.863999 66.2897 0.863999C67.9377 0.863999 69.3617 1.216 70.5617 1.92C71.7777 2.624 72.7057 3.632 73.3457 4.944C74.0017 6.24 74.3297 7.768 74.3297 9.528C74.3297 11.288 74.0017 12.824 73.3457 14.136C72.6897 15.448 71.7537 16.456 70.5377 17.16C69.3377 17.864 67.9217 18.216 66.2897 18.216ZM66.2897 15.744C67.8417 15.744 69.0497 15.208 69.9137 14.136C70.7937 13.064 71.2337 11.528 71.2337 9.528C71.2337 7.528 70.7937 6 69.9137 4.944C69.0497 3.872 67.8417 3.336 66.2897 3.336C64.7217 3.336 63.4977 3.872 62.6177 4.944C61.7537 6 61.3217 7.528 61.3217 9.528C61.3217 11.528 61.7537 13.064 62.6177 14.136C63.4977 15.208 64.7217 15.744 66.2897 15.744ZM84.9448 18C84.4808 18 84.1128 17.872 83.8408 17.616C83.5848 17.36 83.4568 17 83.4568 16.536V2.544C83.4568 2.08 83.5848 1.72 83.8408 1.464C84.1128 1.208 84.4808 1.08 84.9448 1.08H89.6968C92.4648 1.08 94.6088 1.824 96.1288 3.312C97.6648 4.784 98.4328 6.856 98.4328 9.528C98.4328 12.216 97.6648 14.304 96.1288 15.792C94.6088 17.264 92.4648 18 89.6968 18H84.9448ZM89.5048 15.48C93.3928 15.48 95.3368 13.496 95.3368 9.528C95.3368 5.576 93.3928 3.6 89.5048 3.6H86.5528V15.48H89.5048ZM109.087 18.144C108.623 18.144 108.247 18 107.959 17.712C107.687 17.424 107.551 17.048 107.551 16.584V2.496C107.551 2.032 107.687 1.664 107.959 1.392C108.247 1.104 108.623 0.959999 109.087 0.959999C109.567 0.959999 109.943 1.104 110.215 1.392C110.503 1.664 110.647 2.032 110.647 2.496V16.584C110.647 17.048 110.503 17.424 110.215 17.712C109.943 18 109.567 18.144 109.087 18.144ZM121.789 18C121.325 18 120.957 17.872 120.685 17.616C120.429 17.36 120.301 17 120.301 16.536V2.544C120.301 2.08 120.429 1.72 120.685 1.464C120.957 1.208 121.325 1.08 121.789 1.08H130.453C130.917 1.08 131.277 1.184 131.533 1.392C131.789 1.6 131.917 1.896 131.917 2.28C131.917 2.68 131.789 2.992 131.533 3.216C131.277 3.424 130.917 3.528 130.453 3.528H123.325V8.184H129.973C130.437 8.184 130.797 8.288 131.053 8.496C131.309 8.704 131.437 9.008 131.437 9.408C131.437 9.792 131.309 10.088 131.053 10.296C130.797 10.504 130.437 10.608 129.973 10.608H123.325V15.552H130.453C130.917 15.552 131.277 15.664 131.533 15.888C131.789 16.096 131.917 16.4 131.917 16.8C131.917 17.184 131.789 17.48 131.533 17.688C131.277 17.896 130.917 18 130.453 18H121.789ZM146.055 18.216C144.823 18.216 143.655 18.056 142.551 17.736C141.463 17.4 140.575 16.952 139.887 16.392C139.519 16.12 139.335 15.736 139.335 15.24C139.335 14.904 139.431 14.616 139.623 14.376C139.831 14.12 140.071 13.992 140.343 13.992C140.631 13.992 140.959 14.104 141.327 14.328C142.015 14.824 142.735 15.184 143.487 15.408C144.239 15.632 145.071 15.744 145.983 15.744C147.151 15.744 148.047 15.544 148.671 15.144C149.295 14.728 149.607 14.128 149.607 13.344C149.607 12.736 149.311 12.272 148.719 11.952C148.143 11.616 147.175 11.296 145.815 10.992C144.407 10.688 143.263 10.336 142.383 9.936C141.503 9.536 140.839 9.024 140.391 8.4C139.943 7.776 139.719 6.984 139.719 6.024C139.719 5.032 139.999 4.144 140.559 3.36C141.119 2.576 141.895 1.968 142.887 1.536C143.895 1.088 145.023 0.863999 146.271 0.863999C148.559 0.863999 150.423 1.472 151.863 2.688C152.071 2.864 152.215 3.04 152.295 3.216C152.391 3.376 152.439 3.584 152.439 3.84C152.439 4.176 152.335 4.472 152.127 4.728C151.935 4.968 151.703 5.088 151.431 5.088C151.271 5.088 151.119 5.064 150.975 5.016C150.847 4.968 150.671 4.88 150.447 4.752C149.791 4.272 149.151 3.92 148.527 3.696C147.919 3.456 147.167 3.336 146.271 3.336C145.183 3.336 144.319 3.56 143.679 4.008C143.055 4.44 142.743 5.048 142.743 5.832C142.743 6.488 143.023 6.992 143.583 7.344C144.143 7.696 145.095 8.024 146.439 8.328C147.863 8.648 149.015 9.008 149.895 9.408C150.791 9.792 151.471 10.288 151.935 10.896C152.415 11.504 152.655 12.264 152.655 13.176C152.655 14.168 152.375 15.048 151.815 15.816C151.271 16.568 150.495 17.16 149.487 17.592C148.495 18.008 147.351 18.216 146.055 18.216Z" fill="#3E3F43"/>
</svg>
